TITLE ""
FILE "Disc5Track12.mp3" MP3
  TRACK 01 AUDIO
    TITLE "Disc5Track12_01"
    INDEX 01 00:00:00
  TRACK 02 AUDIO
    TITLE "Disc5Track12_02"
    INDEX 01 00:04:10
  TRACK 03 AUDIO
    TITLE "Disc5Track12_03"
    INDEX 01 00:04:41
  TRACK 04 AUDIO
    TITLE "Disc5Track12_04"
    INDEX 01 00:05:58
  TRACK 05 AUDIO
    TITLE "Disc5Track12_05"
    INDEX 01 00:07:71
  TRACK 06 AUDIO
    TITLE "Disc5Track12_06"
    INDEX 01 00:09:11
  TRACK 07 AUDIO
    TITLE "Disc5Track12_07"
    INDEX 01 00:13:15
  TRACK 08 AUDIO
    TITLE "Disc5Track12_08"
    INDEX 01 00:13:48
  TRACK 09 AUDIO
    TITLE "Disc5Track12_09"
    INDEX 01 00:15:00
  TRACK 10 AUDIO
    TITLE "Disc5Track12_10"
    INDEX 01 00:16:05
  TRACK 11 AUDIO
    TITLE "Disc5Track12_11"
    INDEX 01 00:17:34
  TRACK 12 AUDIO
    TITLE "Disc5Track12_12"
    INDEX 01 00:18:00
  TRACK 13 AUDIO
    TITLE "Disc5Track12_13"
    INDEX 01 00:19:23
  TRACK 14 AUDIO
    TITLE "Disc5Track12_14"
    INDEX 01 00:20:23
  TRACK 15 AUDIO
    TITLE "Disc5Track12_15"
    INDEX 01 00:21:46
  TRACK 16 AUDIO
    TITLE "Disc5Track12_16"
    INDEX 01 00:27:09
  TRACK 17 AUDIO
    TITLE "Disc5Track12_17"
    INDEX 01 00:27:42
  TRACK 18 AUDIO
    TITLE "Disc5Track12_18"
    INDEX 01 00:28:50
  TRACK 19 AUDIO
    TITLE "Disc5Track12_19"
    INDEX 01 00:30:39
  TRACK 20 AUDIO
    TITLE "Disc5Track12_20"
    INDEX 01 00:31:46
  TRACK 21 AUDIO
    TITLE "Disc5Track12_21"
    INDEX 01 00:33:27
  TRACK 22 AUDIO
    TITLE "Disc5Track12_22"
    INDEX 01 00:33:63
  TRACK 23 AUDIO
    TITLE "Disc5Track12_23"
    INDEX 01 00:34:74
  TRACK 24 AUDIO
    TITLE "Disc5Track12_24"
    INDEX 01 00:36:18
  TRACK 25 AUDIO
    TITLE "Disc5Track12_25"
    INDEX 01 00:37:29
  TRACK 26 AUDIO
    TITLE "Disc5Track12_26"
    INDEX 01 00:40:18
  TRACK 27 AUDIO
    TITLE "Disc5Track12_27"
    INDEX 01 00:40:47
  TRACK 28 AUDIO
    TITLE "Disc5Track12_28"
    INDEX 01 00:41:72
  TRACK 29 AUDIO
    TITLE "Disc5Track12_29"
    INDEX 01 00:44:62
  TRACK 30 AUDIO
    TITLE "Disc5Track12_30"
    INDEX 01 00:46:06
  TRACK 31 AUDIO
    TITLE "Disc5Track12_31"
    INDEX 01 00:49:09
  TRACK 32 AUDIO
    TITLE "Disc5Track12_32"
    INDEX 01 00:49:38
  TRACK 33 AUDIO
    TITLE "Disc5Track12_33"
    INDEX 01 00:50:65
  TRACK 34 AUDIO
    TITLE "Disc5Track12_34"
    INDEX 01 00:51:68
  TRACK 35 AUDIO
    TITLE "Disc5Track12_35"
    INDEX 01 00:53:18
  TRACK 36 AUDIO
    TITLE "Disc5Track12_36"
    INDEX 01 00:57:20
  TRACK 37 AUDIO
    TITLE "Disc5Track12_37"
    INDEX 01 00:57:53
  TRACK 38 AUDIO
    TITLE "Disc5Track12_38"
    INDEX 01 00:59:01
  TRACK 39 AUDIO
    TITLE "Disc5Track12_39"
    INDEX 01 01:00:12
  TRACK 40 AUDIO
    TITLE "Disc5Track12_40"
    INDEX 01 01:01:35
  TRACK 41 AUDIO
    TITLE "Disc5Track12_41"
    INDEX 01 01:02:00
  TRACK 42 AUDIO
    TITLE "Disc5Track12_42"
    INDEX 01 01:03:30
  TRACK 43 AUDIO
    TITLE "Disc5Track12_43"
    INDEX 01 01:04:57
  TRACK 44 AUDIO
    TITLE "Disc5Track12_44"
    INDEX 01 01:06:09
  TRACK 45 AUDIO
    TITLE "Disc5Track12_45"
    INDEX 01 01:10:68
